<mxfile host="Electron" agent="Mozilla/5.0 (Windows NT 10.0; Win64; x64) AppleWebKit/537.36 (KHTML, like Gecko) draw.io/24.7.17 Chrome/128.0.6613.36 Electron/32.0.1 Safari/537.36" version="24.7.17">
  <diagram name="Page-1" id="Haewlsi_iovVv61Tuty4">
    <mxGraphModel dx="862" dy="506" grid="1" gridSize="10" guides="1" tooltips="1" connect="1" arrows="1" fold="1" page="1" pageScale="1" pageWidth="1169" pageHeight="827" math="0" shadow="0">
      <root>
        <mxCell id="0" />
        <mxCell id="1" parent="0" />
        <object c4Name="Participant" c4Type="" c4Description="Workshop participant" label="&lt;font style=&quot;font-size: 16px&quot;&gt;&lt;b&gt;%c4Name%&lt;/b&gt;&lt;/font&gt;&lt;div&gt;[%c4Type%]&lt;/div&gt;&lt;br&gt;&lt;div&gt;&lt;font style=&quot;font-size: 11px&quot;&gt;&lt;font color=&quot;#000000&quot;&gt;%c4Description%&lt;/font&gt;&lt;/div&gt;" placeholders="1" id="6MHDGr1IVYE9pwsXuLm0-26">
          <mxCell style="html=1;fontSize=11;dashed=0;whiteSpace=wrap;fillColor=#e1d5e7;strokeColor=#9673a6;shape=mxgraph.c4.person2;align=center;metaEdit=1;points=[[0.5,0,0],[1,0.5,0],[1,0.75,0],[0.75,1,0],[0.5,1,0],[0.25,1,0],[0,0.75,0],[0,0.5,0]];resizable=1;movable=1;rotatable=1;deletable=1;editable=1;locked=0;connectable=1;" parent="1" vertex="1">
            <mxGeometry x="40" y="140" width="150" height="140" as="geometry" />
          </mxCell>
        </object>
        <object placeholders="1" c4Name="Organization coordinator(s)" c4Type="User(s)" c4Description="Manages organization&#39;s info, runs reports" label="&lt;font style=&quot;font-size: 16px&quot;&gt;&lt;b&gt;%c4Name%&lt;/b&gt;&lt;/font&gt;&lt;div&gt;[%c4Type%]&lt;/div&gt;&lt;br&gt;&lt;div&gt;&lt;font style=&quot;font-size: 11px&quot;&gt;&lt;font color=&quot;#000000&quot;&gt;%c4Description%&lt;/font&gt;&lt;/div&gt;" id="6MHDGr1IVYE9pwsXuLm0-28">
          <mxCell style="html=1;fontSize=11;dashed=0;whiteSpace=wrap;fillColor=#d5e8d4;strokeColor=#82b366;shape=mxgraph.c4.person2;align=center;metaEdit=1;points=[[0.5,0,0],[1,0.5,0],[1,0.75,0],[0.75,1,0],[0.5,1,0],[0.25,1,0],[0,0.75,0],[0,0.5,0]];resizable=1;movable=1;rotatable=1;deletable=1;editable=1;locked=0;connectable=1;" parent="1" vertex="1">
            <mxGeometry x="910" y="140" width="140" height="140" as="geometry" />
          </mxCell>
        </object>
        <mxCell id="6MHDGr1IVYE9pwsXuLm0-29" value="&lt;div style=&quot;text-align: left;&quot;&gt;&lt;span style=&quot;font-size: 22px; background-color: initial;&quot;&gt;Database&lt;/span&gt;&lt;/div&gt;&lt;div&gt;&lt;div style=&quot;&quot;&gt;&lt;div style=&quot;text-align: left;&quot;&gt;&lt;ul&gt;&lt;li&gt;&lt;span style=&quot;background-color: initial;&quot;&gt;Attendees&lt;/span&gt;&lt;/li&gt;&lt;li&gt;&lt;span style=&quot;background-color: initial;&quot;&gt;Authentication&lt;/span&gt;&lt;/li&gt;&lt;li&gt;Coordinators&lt;/li&gt;&lt;li&gt;Demographics&lt;/li&gt;&lt;li&gt;Events&lt;/li&gt;&lt;li&gt;Organizations&lt;/li&gt;&lt;li&gt;Questions&lt;/li&gt;&lt;li&gt;Reports&lt;/li&gt;&lt;li&gt;Responses&lt;/li&gt;&lt;/ul&gt;&lt;/div&gt;&lt;/div&gt;&lt;/div&gt;" style="shape=datastore;whiteSpace=wrap;html=1;fillColor=#d5e8d4;strokeColor=#82b366;" parent="1" vertex="1">
          <mxGeometry x="470" y="80" width="220" height="280" as="geometry" />
        </mxCell>
        <mxCell id="6MHDGr1IVYE9pwsXuLm0-31" value="" style="endArrow=classic;html=1;rounded=0;entryX=1;entryY=0.75;entryDx=0;entryDy=0;entryPerimeter=0;exitX=0.024;exitY=0.703;exitDx=0;exitDy=0;exitPerimeter=0;" parent="1" source="6MHDGr1IVYE9pwsXuLm0-41" target="6MHDGr1IVYE9pwsXuLm0-26" edge="1">
          <mxGeometry width="50" height="50" relative="1" as="geometry">
            <mxPoint x="280" y="570" as="sourcePoint" />
            <mxPoint x="680" y="470" as="targetPoint" />
          </mxGeometry>
        </mxCell>
        <mxCell id="6MHDGr1IVYE9pwsXuLm0-32" value="Prompts with question" style="edgeLabel;html=1;align=center;verticalAlign=middle;resizable=0;points=[];" parent="6MHDGr1IVYE9pwsXuLm0-31" vertex="1" connectable="0">
          <mxGeometry x="-0.0925" y="4" relative="1" as="geometry">
            <mxPoint as="offset" />
          </mxGeometry>
        </mxCell>
        <mxCell id="6MHDGr1IVYE9pwsXuLm0-33" value="" style="endArrow=classic;html=1;rounded=0;entryX=0.467;entryY=0.998;entryDx=0;entryDy=0;entryPerimeter=0;exitX=0.5;exitY=1;exitDx=0;exitDy=0;exitPerimeter=0;" parent="1" source="6MHDGr1IVYE9pwsXuLm0-26" target="6MHDGr1IVYE9pwsXuLm0-41" edge="1">
          <mxGeometry width="50" height="50" relative="1" as="geometry">
            <mxPoint x="260" y="510" as="sourcePoint" />
            <mxPoint x="309.19000000000005" y="577.8399999999999" as="targetPoint" />
          </mxGeometry>
        </mxCell>
        <mxCell id="6MHDGr1IVYE9pwsXuLm0-34" value="Submits response" style="edgeLabel;html=1;align=center;verticalAlign=middle;resizable=0;points=[];" parent="6MHDGr1IVYE9pwsXuLm0-33" vertex="1" connectable="0">
          <mxGeometry x="0.0186" y="5" relative="1" as="geometry">
            <mxPoint as="offset" />
          </mxGeometry>
        </mxCell>
        <mxCell id="6MHDGr1IVYE9pwsXuLm0-37" value="&lt;font style=&quot;font-size: 32px;&quot;&gt;OBWOB System Context Diagram&lt;/font&gt;" style="text;html=1;align=center;verticalAlign=middle;whiteSpace=wrap;rounded=0;" parent="1" vertex="1">
          <mxGeometry x="302" y="40" width="565" height="30" as="geometry" />
        </mxCell>
        <mxCell id="6MHDGr1IVYE9pwsXuLm0-41" value="&lt;font style=&quot;font-size: 22px;&quot;&gt;Mobile app&lt;/font&gt;" style="verticalLabelPosition=bottom;verticalAlign=top;html=1;shadow=0;dashed=0;strokeWidth=1;shape=mxgraph.android.phone2;strokeColor=#82b366;direction=south;fillColor=#d5e8d4;" parent="1" vertex="1">
          <mxGeometry x="180" y="450" width="240" height="110" as="geometry" />
        </mxCell>
        <mxCell id="6MHDGr1IVYE9pwsXuLm0-42" value="&lt;font style=&quot;font-size: 22px;&quot;&gt;Web app&lt;/font&gt;" style="sketch=0;outlineConnect=0;strokeColor=#668C50;fillColor=#BECFBD;dashed=0;verticalLabelPosition=bottom;verticalAlign=top;align=center;html=1;fontSize=12;fontStyle=0;aspect=fixed;shape=mxgraph.aws4.illustration_desktop;pointerEvents=1" parent="1" vertex="1">
          <mxGeometry x="700" y="450" width="175.83" height="160" as="geometry" />
        </mxCell>
        <mxCell id="6MHDGr1IVYE9pwsXuLm0-43" value="" style="endArrow=classic;html=1;rounded=0;exitX=0.02;exitY=0.707;exitDx=0;exitDy=0;exitPerimeter=0;" parent="1" source="6MHDGr1IVYE9pwsXuLm0-28" target="6MHDGr1IVYE9pwsXuLm0-42" edge="1">
          <mxGeometry width="50" height="50" relative="1" as="geometry">
            <mxPoint x="650" y="560" as="sourcePoint" />
            <mxPoint x="840" y="550" as="targetPoint" />
          </mxGeometry>
        </mxCell>
        <mxCell id="6MHDGr1IVYE9pwsXuLm0-44" value="Manages organization, events etc" style="edgeLabel;html=1;align=center;verticalAlign=middle;resizable=0;points=[];" parent="6MHDGr1IVYE9pwsXuLm0-43" vertex="1" connectable="0">
          <mxGeometry x="-0.0136" y="-2" relative="1" as="geometry">
            <mxPoint as="offset" />
          </mxGeometry>
        </mxCell>
        <mxCell id="6MHDGr1IVYE9pwsXuLm0-45" value="" style="endArrow=classic;html=1;rounded=0;entryX=0.5;entryY=1;entryDx=0;entryDy=0;entryPerimeter=0;" parent="1" target="6MHDGr1IVYE9pwsXuLm0-28" edge="1">
          <mxGeometry width="50" height="50" relative="1" as="geometry">
            <mxPoint x="880" y="560" as="sourcePoint" />
            <mxPoint x="700" y="510" as="targetPoint" />
          </mxGeometry>
        </mxCell>
        <mxCell id="6MHDGr1IVYE9pwsXuLm0-46" value="Searches, reports" style="edgeLabel;html=1;align=center;verticalAlign=middle;resizable=0;points=[];" parent="6MHDGr1IVYE9pwsXuLm0-45" vertex="1" connectable="0">
          <mxGeometry x="0.009" y="1" relative="1" as="geometry">
            <mxPoint as="offset" />
          </mxGeometry>
        </mxCell>
        <mxCell id="6MHDGr1IVYE9pwsXuLm0-49" value="" style="endArrow=classic;startArrow=classic;html=1;rounded=0;exitX=0.791;exitY=0.979;exitDx=0;exitDy=0;exitPerimeter=0;" parent="1" source="6MHDGr1IVYE9pwsXuLm0-29" target="6MHDGr1IVYE9pwsXuLm0-42" edge="1">
          <mxGeometry width="50" height="50" relative="1" as="geometry">
            <mxPoint x="650" y="560" as="sourcePoint" />
            <mxPoint x="700" y="510" as="targetPoint" />
          </mxGeometry>
        </mxCell>
        <mxCell id="6MHDGr1IVYE9pwsXuLm0-50" value="Interfaces with" style="edgeLabel;html=1;align=center;verticalAlign=middle;resizable=0;points=[];" parent="6MHDGr1IVYE9pwsXuLm0-49" vertex="1" connectable="0">
          <mxGeometry x="-0.0107" y="1" relative="1" as="geometry">
            <mxPoint as="offset" />
          </mxGeometry>
        </mxCell>
        <object placeholders="1" c4Name="Organization systems" c4Type="Software systems, databases" c4Description="Internal systems e.g. user databases, event management" label="&lt;font style=&quot;font-size: 16px&quot;&gt;&lt;b&gt;%c4Name%&lt;/b&gt;&lt;/font&gt;&lt;div&gt;[%c4Type%]&lt;/div&gt;&lt;br&gt;&lt;div&gt;&lt;font style=&quot;font-size: 11px&quot;&gt;&lt;font color=&quot;#cccccc&quot;&gt;%c4Description%&lt;/font&gt;&lt;/div&gt;" id="6MHDGr1IVYE9pwsXuLm0-55">
          <mxCell style="rounded=1;whiteSpace=wrap;html=1;labelBackgroundColor=none;fillColor=#8C8496;fontColor=#ffffff;align=center;arcSize=10;strokeColor=#736782;metaEdit=1;resizable=0;points=[[0.25,0,0],[0.5,0,0],[0.75,0,0],[1,0.25,0],[1,0.5,0],[1,0.75,0],[0.75,1,0],[0.5,1,0],[0.25,1,0],[0,0.75,0],[0,0.5,0],[0,0.25,0]];" parent="1" vertex="1">
            <mxGeometry x="940" y="580" width="240" height="120" as="geometry" />
          </mxCell>
        </object>
        <mxCell id="1izp4UjXAUkeLrmssFSu-3" value="" style="endArrow=classic;startArrow=classic;html=1;rounded=0;exitX=-0.007;exitY=0.151;exitDx=0;exitDy=0;exitPerimeter=0;" edge="1" parent="1" source="6MHDGr1IVYE9pwsXuLm0-41">
          <mxGeometry width="50" height="50" relative="1" as="geometry">
            <mxPoint x="460" y="400" as="sourcePoint" />
            <mxPoint x="510" y="350" as="targetPoint" />
          </mxGeometry>
        </mxCell>
        <mxCell id="1izp4UjXAUkeLrmssFSu-4" value="Interfaces with" style="edgeLabel;html=1;align=center;verticalAlign=middle;resizable=0;points=[];" vertex="1" connectable="0" parent="1izp4UjXAUkeLrmssFSu-3">
          <mxGeometry x="0.0273" y="3" relative="1" as="geometry">
            <mxPoint as="offset" />
          </mxGeometry>
        </mxCell>
        <object c4Name="Facilitator" c4Type="" c4Description="Workshop facilitator" label="&lt;font style=&quot;font-size: 16px&quot;&gt;&lt;b&gt;%c4Name%&lt;/b&gt;&lt;/font&gt;&lt;div&gt;[%c4Type%]&lt;/div&gt;&lt;br&gt;&lt;div&gt;&lt;font style=&quot;font-size: 11px&quot;&gt;&lt;font color=&quot;#000000&quot;&gt;%c4Description%&lt;/font&gt;&lt;/div&gt;" placeholders="1" id="1izp4UjXAUkeLrmssFSu-5">
          <mxCell style="html=1;fontSize=11;dashed=0;whiteSpace=wrap;fillColor=#e1d5e7;strokeColor=#9673a6;shape=mxgraph.c4.person2;align=center;metaEdit=1;points=[[0.5,0,0],[1,0.5,0],[1,0.75,0],[0.75,1,0],[0.5,1,0],[0.25,1,0],[0,0.75,0],[0,0.5,0]];resizable=1;movable=1;rotatable=1;deletable=1;editable=1;locked=0;connectable=1;" vertex="1" parent="1">
            <mxGeometry x="40" y="640" width="150" height="140" as="geometry" />
          </mxCell>
        </object>
        <mxCell id="1izp4UjXAUkeLrmssFSu-6" value="" style="endArrow=classic;html=1;rounded=0;entryX=1.011;entryY=0.843;entryDx=0;entryDy=0;entryPerimeter=0;exitX=0.907;exitY=0.411;exitDx=0;exitDy=0;exitPerimeter=0;" edge="1" parent="1" source="1izp4UjXAUkeLrmssFSu-5" target="6MHDGr1IVYE9pwsXuLm0-41">
          <mxGeometry width="50" height="50" relative="1" as="geometry">
            <mxPoint x="180" y="690" as="sourcePoint" />
            <mxPoint x="230" y="660" as="targetPoint" />
          </mxGeometry>
        </mxCell>
        <mxCell id="1izp4UjXAUkeLrmssFSu-7" value="Selects or creates questions &amp;amp;&lt;div&gt;pushes them to participants&#39; devices in real-time&lt;/div&gt;" style="edgeLabel;html=1;align=center;verticalAlign=middle;resizable=0;points=[];" vertex="1" connectable="0" parent="1izp4UjXAUkeLrmssFSu-6">
          <mxGeometry x="-0.0073" y="4" relative="1" as="geometry">
            <mxPoint x="1" as="offset" />
          </mxGeometry>
        </mxCell>
        <mxCell id="1izp4UjXAUkeLrmssFSu-8" value="" style="endArrow=classic;startArrow=classic;html=1;rounded=0;exitX=0.537;exitY=-0.007;exitDx=0;exitDy=0;exitPerimeter=0;" edge="1" parent="1" source="6MHDGr1IVYE9pwsXuLm0-55">
          <mxGeometry width="50" height="50" relative="1" as="geometry">
            <mxPoint x="970" y="330" as="sourcePoint" />
            <mxPoint x="1020" y="280" as="targetPoint" />
          </mxGeometry>
        </mxCell>
        <mxCell id="1izp4UjXAUkeLrmssFSu-9" value="Interfaces with" style="edgeLabel;html=1;align=center;verticalAlign=middle;resizable=0;points=[];" vertex="1" connectable="0" parent="1izp4UjXAUkeLrmssFSu-8">
          <mxGeometry x="-0.0131" y="-2" relative="1" as="geometry">
            <mxPoint as="offset" />
          </mxGeometry>
        </mxCell>
      </root>
    </mxGraphModel>
  </diagram>
</mxfile>
